<!--?xml version="1.0" encoding="utf-8"?-->
<!-- Generator: Adobe Illustrator 18.1.1, SVG Export Plug-In . SVG Version: 6.00 Build 0)  -->

<svg version="1.1" id="_x32_" xmlns="http://www.w3.org/2000/svg" xmlns:xlink="http://www.w3.org/1999/xlink" x="0px" y="0px" viewBox="0 0 512 512" style="width: 256px; height: 256px; opacity: 1;" xml:space="preserve">
<style type="text/css">
	.st0{fill:#4B4B4B;}
</style>
<g>
	<path class="st0" d="M101.721,149.177H0v44.739h101.721c9.878,36.784,43.343,63.904,83.255,63.904h62.308V85.265h-62.308
		C145.064,85.265,111.583,112.385,101.721,149.177z" style="fill: rgb(0, 0, 0);"></path>
	<path class="st0" d="M410.262,149.177c-9.862-36.792-43.326-63.912-83.238-63.912h-62.308v172.555h62.308
		c39.896,0,73.377-27.12,83.238-63.904H512v-44.739H410.262z" style="fill: rgb(0, 0, 0);"></path>
	<polygon class="st0" points="147.461,323.671 73.946,375.203 147.461,426.735 147.461,394.53 215.338,394.53 215.338,375.203 
		215.338,355.876 147.461,355.876 	" style="fill: rgb(0, 0, 0);"></polygon>
	<polygon class="st0" points="364.557,355.876 296.68,355.876 296.68,375.203 296.68,394.53 364.557,394.53 364.557,426.735 
		438.054,375.203 364.557,323.671 	" style="fill: rgb(0, 0, 0);"></polygon>
</g>
</svg>
