<!--?xml version="1.0" encoding="utf-8"?-->
<!-- Generator: Adobe Illustrator 18.1.1, SVG Export Plug-In . SVG Version: 6.00 Build 0)  -->

<svg version="1.1" id="_x32_" xmlns="http://www.w3.org/2000/svg" xmlns:xlink="http://www.w3.org/1999/xlink" x="0px" y="0px" viewBox="0 0 512 512" style="width: 256px; height: 256px; opacity: 1;" xml:space="preserve">
<style type="text/css">
	.st0{fill:#4B4B4B;}
</style>
<g>
	<path class="st0" d="M153.225,256.568h57.062V98.544h-57.062c-36.544,0-67.206,24.836-76.242,58.53H0v40.973h76.987
		C86.027,231.732,116.685,256.568,153.225,256.568z" style="fill: rgb(255, 255, 255);"></path>
	<path class="st0" d="M512,157.074h-76.992c-9.031-33.694-39.689-58.53-76.234-58.53h-57.061v158.024h57.061
		c36.54,0,67.195-24.836,76.23-58.522H512V157.074z" style="fill: rgb(255, 255, 255);"></path>
	<polygon class="st0" points="156.584,319.07 89.272,366.262 156.584,413.456 156.584,383.962 218.753,383.962 218.753,366.262 
		218.753,348.564 156.584,348.564 	" style="fill: rgb(255, 255, 255);"></polygon>
	<polygon class="st0" points="355.411,348.564 293.242,348.564 293.242,366.262 293.242,383.962 355.411,383.962 355.411,413.456 
		422.724,366.262 355.411,319.07 	" style="fill: rgb(255, 255, 255);"></polygon>
</g>
</svg>
